<svg width="125" height="36" viewBox="0 0 125 36" fill="none" xmlns="http://www.w3.org/2000/svg">
<rect x="20.1174" y="30.6201" width="16.7592" height="6.2847" transform="rotate(-90 20.1174 30.6201)" fill="#FEC303"/>
<rect x="10.0605" y="29.9744" width="29.3286" height="6.2847" transform="rotate(-90 10.0605 29.9744)" fill="white"/>
<rect y="16.7593" width="16.7592" height="6.2847" transform="rotate(-90 0 16.7593)" fill="white"/>
<path d="M48.06 16.74C43.74 16.74 40.69 19.76 40.69 24C40.69 28.24 43.74 31.26 48.06 31.26C50.74 31.26 52.87 30.07 54.15 28.16L51.41 26.22C50.61 27.41 49.45 28.06 48.03 28.06C45.96 28.06 44.17 26.6 44.17 24C44.17 21.6 45.81 19.94 48.02 19.94C49.47 19.94 50.62 20.6 51.35 21.79L54.28 20.11C53.09 17.99 50.73 16.74 48.06 16.74ZM65.5603 21.19H62.5303V22.25C61.9403 21.48 61.0403 20.92 59.7203 20.92C57.0903 20.92 55.1503 23.2 55.1503 26.08C55.1503 28.98 57.0903 31.26 59.7103 31.26C61.0403 31.26 61.9403 30.71 62.5303 29.94V31H65.5603V21.19ZM60.4603 23.84C61.6903 23.84 62.5603 24.79 62.5603 26.09C62.5603 27.39 61.6903 28.34 60.4603 28.34C59.2103 28.34 58.3703 27.37 58.3703 26.09C58.3703 24.81 59.2103 23.84 60.4603 23.84ZM73.4206 20.92C72.2206 20.92 71.3106 21.37 70.7406 22.32V21.19H67.7406V31H70.8706V25.7C70.8706 24.48 71.5506 23.93 72.6606 23.93C73.2206 23.93 73.8106 24.05 74.2306 24.19L74.5206 21.07C74.2806 21 73.8806 20.92 73.4206 20.92ZM83.6791 21.19H80.3291V18.33H77.1991V21.19H75.3691V23.96H77.1991V27.23C77.1991 29.69 78.3891 31.26 81.0191 31.26C82.5991 31.26 83.5791 30.81 84.4991 30.17L83.4191 27.73C82.9291 28.02 82.2991 28.34 81.7191 28.34C80.9291 28.34 80.3291 27.96 80.3291 26.83V23.96H83.6791V21.19Z" fill="white"/>
<path d="M96.2789 27.9H89.2389V17H85.8989V31H96.2789V27.9ZM100.753 21.19H97.6234V31H100.753V21.19ZM99.1734 16.29C98.1134 16.29 97.3034 17.11 97.3034 18.17C97.3034 19.22 98.1134 20.03 99.1734 20.03C100.223 20.03 101.043 19.22 101.043 18.17C101.043 17.11 100.223 16.29 99.1734 16.29ZM108.856 20.92C107.546 20.92 106.556 21.39 105.936 22.42V21.19H102.936V31H106.066V25.72C106.066 24.45 106.786 23.86 107.656 23.86C108.626 23.86 109.206 24.51 109.206 25.67V31H112.336V24.56C112.336 22.29 110.816 20.92 108.856 20.92ZM118.969 20.92C115.989 20.92 113.939 23.06 113.939 26.15C113.939 29.21 116.029 31.26 119.109 31.26C120.919 31.26 122.409 30.67 123.429 29.65L121.409 27.77C120.789 28.33 119.999 28.63 119.269 28.63C118.189 28.63 117.429 28.13 117.169 27.06H123.819C123.859 26.85 123.879 26.41 123.879 26.09C123.869 23.02 121.879 20.92 118.969 20.92ZM118.979 23.58C119.889 23.58 120.499 24.1 120.749 25.08H117.179C117.419 24.11 118.009 23.58 118.979 23.58Z" fill="#FEC303"/>
</svg>
