<svg width="1512" height="731" viewBox="0 0 1512 731" fill="none" xmlns="http://www.w3.org/2000/svg">
<rect width="1512" height="731" fill="#1A1A1A"/>
<circle r="3" transform="matrix(0 -1 -1 0 1507 281)" fill="#C4C4C4"/>
<circle r="3" transform="matrix(0 -1 -1 0 1507 259)" fill="#C4C4C4"/>
<circle r="3" transform="matrix(0 -1 -1 0 1507 237)" fill="#C4C4C4"/>
<circle r="3" transform="matrix(0 -1 -1 0 1507 215)" fill="#C4C4C4"/>
<circle r="3" transform="matrix(0 -1 -1 0 1507 193)" fill="#C4C4C4"/>
<circle r="3" transform="matrix(0 -1 -1 0 1507 171)" fill="#C4C4C4"/>
<circle r="3" transform="matrix(0 -1 -1 0 1485 281)" fill="#C4C4C4"/>
<circle r="3" transform="matrix(0 -1 -1 0 1485 259)" fill="#C4C4C4"/>
<circle r="3" transform="matrix(0 -1 -1 0 1485 237)" fill="#C4C4C4"/>
<circle r="3" transform="matrix(0 -1 -1 0 1485 215)" fill="#C4C4C4"/>
<circle r="3" transform="matrix(0 -1 -1 0 1485 193)" fill="#C4C4C4"/>
<circle r="3" transform="matrix(0 -1 -1 0 1485 171)" fill="#C4C4C4"/>
<circle r="3" transform="matrix(0 -1 -1 0 1474 281)" fill="#C4C4C4"/>
<circle r="3" transform="matrix(0 -1 -1 0 1474 259)" fill="#C4C4C4"/>
<circle r="3" transform="matrix(0 -1 -1 0 1474 237)" fill="#C4C4C4"/>
<circle r="3" transform="matrix(0 -1 -1 0 1474 215)" fill="#C4C4C4"/>
<circle r="3" transform="matrix(0 -1 -1 0 1474 193)" fill="#C4C4C4"/>
<circle r="3" transform="matrix(0 -1 -1 0 1474 171)" fill="#C4C4C4"/>
<circle r="3" transform="matrix(0 -1 -1 0 1452 281)" fill="#C4C4C4"/>
<circle r="3" transform="matrix(0 -1 -1 0 1452 259)" fill="#C4C4C4"/>
<circle r="3" transform="matrix(0 -1 -1 0 1452 237)" fill="#C4C4C4"/>
<circle r="3" transform="matrix(0 -1 -1 0 1452 215)" fill="#C4C4C4"/>
<circle r="3" transform="matrix(0 -1 -1 0 1452 193)" fill="#C4C4C4"/>
<circle r="3" transform="matrix(0 -1 -1 0 1452 171)" fill="#C4C4C4"/>
<circle r="3" transform="matrix(0 -1 -1 0 1430 281)" fill="#C4C4C4"/>
<circle r="3" transform="matrix(0 -1 -1 0 1430 259)" fill="#C4C4C4"/>
<circle r="3" transform="matrix(0 -1 -1 0 1430 237)" fill="#C4C4C4"/>
<circle r="3" transform="matrix(0 -1 -1 0 1430 215)" fill="#C4C4C4"/>
<circle r="3" transform="matrix(0 -1 -1 0 1430 193)" fill="#C4C4C4"/>
<circle r="3" transform="matrix(0 -1 -1 0 1430 171)" fill="#C4C4C4"/>
<circle r="3" transform="matrix(0 -1 -1 0 1408 281)" fill="#C4C4C4"/>
<circle r="3" transform="matrix(0 -1 -1 0 1408 259)" fill="#C4C4C4"/>
<circle r="3" transform="matrix(0 -1 -1 0 1408 237)" fill="#C4C4C4"/>
<circle r="3" transform="matrix(0 -1 -1 0 1408 215)" fill="#C4C4C4"/>
<circle r="3" transform="matrix(0 -1 -1 0 1408 193)" fill="#C4C4C4"/>
<circle r="3" transform="matrix(0 -1 -1 0 1408 171)" fill="#C4C4C4"/>
<circle r="3" transform="matrix(0 -1 -1 0 1386 281)" fill="#C4C4C4"/>
<circle r="3" transform="matrix(0 -1 -1 0 1386 259)" fill="#C4C4C4"/>
<circle r="3" transform="matrix(0 -1 -1 0 1386 237)" fill="#C4C4C4"/>
<circle r="3" transform="matrix(0 -1 -1 0 1386 215)" fill="#C4C4C4"/>
<circle r="3" transform="matrix(0 -1 -1 0 1386 193)" fill="#C4C4C4"/>
<circle r="3" transform="matrix(0 -1 -1 0 1386 171)" fill="#C4C4C4"/>
<circle r="3" transform="matrix(0 -1 -1 0 1364 281)" fill="#C4C4C4"/>
<circle r="3" transform="matrix(0 -1 -1 0 1364 259)" fill="#C4C4C4"/>
<circle r="3" transform="matrix(0 -1 -1 0 1364 237)" fill="#C4C4C4"/>
<circle r="3" transform="matrix(0 -1 -1 0 1364 215)" fill="#C4C4C4"/>
<circle r="3" transform="matrix(0 -1 -1 0 1364 193)" fill="#C4C4C4"/>
<circle r="3" transform="matrix(0 -1 -1 0 1364 171)" fill="#C4C4C4"/>
<circle r="3" transform="matrix(0 -1 -1 0 1342 281)" fill="#C4C4C4"/>
<circle r="3" transform="matrix(0 -1 -1 0 1342 259)" fill="#C4C4C4"/>
<circle r="3" transform="matrix(0 -1 -1 0 1342 237)" fill="#C4C4C4"/>
<circle r="3" transform="matrix(0 -1 -1 0 1342 215)" fill="#C4C4C4"/>
<circle r="3" transform="matrix(0 -1 -1 0 1342 193)" fill="#C4C4C4"/>
<circle r="3" transform="matrix(0 -1 -1 0 1342 171)" fill="#C4C4C4"/>
<circle cx="9" cy="560" r="3" transform="rotate(-90 9 560)" fill="#C4C4C4"/>
<circle cx="9" cy="538" r="3" transform="rotate(-90 9 538)" fill="#C4C4C4"/>
<circle cx="9" cy="516" r="3" transform="rotate(-90 9 516)" fill="#C4C4C4"/>
<circle cx="9" cy="494" r="3" transform="rotate(-90 9 494)" fill="#C4C4C4"/>
<circle cx="9" cy="472" r="3" transform="rotate(-90 9 472)" fill="#C4C4C4"/>
<circle cx="9" cy="450" r="3" transform="rotate(-90 9 450)" fill="#C4C4C4"/>
<circle cx="31" cy="560" r="3" transform="rotate(-90 31 560)" fill="#C4C4C4"/>
<circle cx="31" cy="538" r="3" transform="rotate(-90 31 538)" fill="#C4C4C4"/>
<circle cx="31" cy="516" r="3" transform="rotate(-90 31 516)" fill="#C4C4C4"/>
<circle cx="31" cy="494" r="3" transform="rotate(-90 31 494)" fill="#C4C4C4"/>
<circle cx="31" cy="472" r="3" transform="rotate(-90 31 472)" fill="#C4C4C4"/>
<circle cx="31" cy="450" r="3" transform="rotate(-90 31 450)" fill="#C4C4C4"/>
<circle cx="53" cy="560" r="3" transform="rotate(-90 53 560)" fill="#C4C4C4"/>
<circle cx="53" cy="538" r="3" transform="rotate(-90 53 538)" fill="#C4C4C4"/>
<circle cx="53" cy="516" r="3" transform="rotate(-90 53 516)" fill="#C4C4C4"/>
<circle cx="53" cy="494" r="3" transform="rotate(-90 53 494)" fill="#C4C4C4"/>
<circle cx="53" cy="472" r="3" transform="rotate(-90 53 472)" fill="#C4C4C4"/>
<circle cx="53" cy="450" r="3" transform="rotate(-90 53 450)" fill="#C4C4C4"/>
<circle cx="75" cy="560" r="3" transform="rotate(-90 75 560)" fill="#C4C4C4"/>
<circle cx="75" cy="538" r="3" transform="rotate(-90 75 538)" fill="#C4C4C4"/>
<circle cx="75" cy="516" r="3" transform="rotate(-90 75 516)" fill="#C4C4C4"/>
<circle cx="75" cy="494" r="3" transform="rotate(-90 75 494)" fill="#C4C4C4"/>
<circle cx="75" cy="472" r="3" transform="rotate(-90 75 472)" fill="#C4C4C4"/>
<circle cx="75" cy="450" r="3" transform="rotate(-90 75 450)" fill="#C4C4C4"/>
<circle cx="97" cy="560" r="3" transform="rotate(-90 97 560)" fill="#C4C4C4"/>
<circle cx="97" cy="538" r="3" transform="rotate(-90 97 538)" fill="#C4C4C4"/>
<circle cx="97" cy="516" r="3" transform="rotate(-90 97 516)" fill="#C4C4C4"/>
<circle cx="97" cy="494" r="3" transform="rotate(-90 97 494)" fill="#C4C4C4"/>
<circle cx="97" cy="472" r="3" transform="rotate(-90 97 472)" fill="#C4C4C4"/>
<circle cx="97" cy="450" r="3" transform="rotate(-90 97 450)" fill="#C4C4C4"/>
<circle cx="119" cy="560" r="3" transform="rotate(-90 119 560)" fill="#C4C4C4"/>
<circle cx="119" cy="538" r="3" transform="rotate(-90 119 538)" fill="#C4C4C4"/>
<circle cx="119" cy="516" r="3" transform="rotate(-90 119 516)" fill="#C4C4C4"/>
<circle cx="119" cy="494" r="3" transform="rotate(-90 119 494)" fill="#C4C4C4"/>
<circle cx="119" cy="472" r="3" transform="rotate(-90 119 472)" fill="#C4C4C4"/>
<circle cx="119" cy="450" r="3" transform="rotate(-90 119 450)" fill="#C4C4C4"/>
</svg>
